<svg id="组_6735" data-name="组 6735" xmlns="http://www.w3.org/2000/svg" width="68" height="68" viewBox="0 0 68 68">
  <defs>
    <style>
      .cls-1 {
        fill: #dedfe0;
      }

      .cls-2 {
        fill: #f5f5f9;
      }
    </style>
  </defs>
  <path id="路径_7622" data-name="路径 7622" class="cls-1" d="M0,34A34,34,0,1,0,34,0,34,34,0,0,0,0,34Z"/>
  <path id="路径_7623" data-name="路径 7623" class="cls-2" d="M185.763,223.174c-4.9-3.222-12.609-6.042-13.391-6.451-.84-.439-4.9-1.754-5.041-5.116-.123-2.935,2.588-4.034,5.041-7.163,1.681-3.411,3.921-11.548,1.68-19a14.359,14.359,0,0,0-12.6-9.062l-.28.116-.28-.116a14.358,14.358,0,0,0-12.6,9.062c-2.241,7.455,0,16.03,1.68,19,2.453,3.129,5.163,4.229,5.041,7.163-.14,3.362-4.2,4.677-5.041,5.116-.782.409-8.492,3.229-13.392,6.451-.02.014-.033.029-.051.043a32.634,32.634,0,0,0,49.282.009c-.017-.017-.028-.035-.044-.053Z" transform="translate(-127.17 -166.459)"/>
</svg>
